<svg width="709" height="112" viewBox="0 0 709 112" fill="none" xmlns="http://www.w3.org/2000/svg">
<g clip-path="url(#clip0)">
<rect y="26" width="6" height="60" fill="black"/>
<rect x="2" y="30.5024" width="6" height="29.5124" rx="3" transform="rotate(-66.5 2 30.5024)" fill="black"/>
<rect x="52" y="62.5024" width="6" height="9" rx="3" transform="rotate(-66.5 52 62.5024)" fill="black"/>
<rect x="65" y="68.5023" width="6" height="14" rx="3" transform="rotate(-66.5 65 68.5023)" fill="black"/>
<rect x="82" y="75.5024" width="6" height="14.7386" rx="3" transform="rotate(-66.5 82 75.5024)" fill="black"/>
<rect x="100" y="83.5024" width="6" height="7.1705" rx="3" transform="rotate(-66.5 100 83.5024)" fill="black"/>
<rect x="52" y="81.0524" width="6" height="29.5124" rx="3" transform="rotate(-0.500001 52 81.0524)" fill="black"/>
<rect x="52.3839" y="1.02451" width="6" height="11" rx="3" fill="black"/>
<rect x="52" y="35" width="6" height="14" rx="3" fill="black"/>
<rect x="52" y="54" width="6" height="8" rx="3" fill="black"/>
<rect x="52" y="16" width="6" height="14" rx="3" fill="black"/>
<rect x="81.3925" y="42.2704" width="6" height="29.5124" rx="3" transform="rotate(-113.5 81.3925 42.2704)" fill="black"/>
<rect x="5.39249" y="86.2704" width="6" height="6" rx="3" transform="rotate(-113.5 5.39249 86.2704)" fill="black"/>
<rect x="15.3925" y="81.8949" width="6" height="14" rx="3" transform="rotate(-113.5 15.3925 81.8949)" fill="black"/>
<rect x="33.3925" y="74.0848" width="6" height="14" rx="3" transform="rotate(-113.5 33.3925 74.0848)" fill="black"/>
<rect x="50.3925" y="66.0848" width="6" height="9" rx="3" transform="rotate(-113.5 50.3925 66.0848)" fill="black"/>
<rect x="104" y="26" width="6" height="60" fill="black"/>
<rect x="54.7392" y="0.108383" width="6" height="60.8008" transform="rotate(65 54.7392 0.108383)" fill="black"/>
<rect x="107.465" y="80.5636" width="5.99836" height="60.577" transform="rotate(65 107.465 80.5636)" fill="black"/>
<rect x="52.2113" y="5.53639" width="5.98666" height="61.0432" transform="rotate(-65 52.2113 5.53639)" fill="black"/>
<rect x="0.00457764" y="85.9978" width="5.59922" height="60.7456" transform="rotate(-65 0.00457764 85.9978)" fill="black"/>
</g>
<path d="M127.357 84V27.0413H174.889C177.529 27.0413 179.774 27.9919 181.622 29.8932C183.471 31.7417 184.395 33.9598 184.395 36.5476V53.2629C184.395 55.8507 183.471 58.0953 181.622 59.9965C179.774 61.845 177.529 62.7692 174.889 62.7692H166.175L184.078 83.9208V84H175.602L157.777 62.7692L133.774 62.69V84H127.357ZM136.863 56.2732H174.889C175.734 56.2732 176.447 55.9828 177.028 55.4018C177.609 54.8209 177.899 54.1079 177.899 53.2629V36.5476C177.899 35.7026 177.609 34.9896 177.028 34.4087C176.447 33.775 175.734 33.4581 174.889 33.4581H136.863C136.018 33.4581 135.279 33.775 134.645 34.4087C134.064 34.9896 133.774 35.7026 133.774 36.5476V53.2629C133.774 54.1079 134.064 54.8209 134.645 55.4018C135.279 55.9828 136.018 56.2732 136.863 56.2732ZM192.966 84V36.4684C192.966 33.8278 193.89 31.5832 195.739 29.7348C197.587 27.8863 199.832 26.9621 202.472 26.9621H240.498C243.138 26.9621 245.383 27.8863 247.231 29.7348C249.08 31.5832 250.004 33.8278 250.004 36.4684V84H243.587V63.1653H199.383V84H192.966ZM199.383 56.7486H243.587V36.4684C243.587 35.6234 243.27 34.9104 242.637 34.3295C242.056 33.6957 241.343 33.3789 240.498 33.3789H202.472C201.627 33.3789 200.888 33.6957 200.254 34.3295C199.673 34.9104 199.383 35.6234 199.383 36.4684V56.7486ZM268.378 84C265.737 84 263.493 83.0758 261.644 81.2273C259.796 79.3789 258.872 77.1343 258.872 74.4937V26.9621H265.288V74.4937C265.288 75.3387 265.579 76.0781 266.16 76.7118C266.794 77.2928 267.533 77.5832 268.378 77.5832H306.403C307.248 77.5832 307.961 77.2928 308.542 76.7118C309.176 76.0781 309.493 75.3387 309.493 74.4937V26.9621H315.91V74.4937C315.91 77.1343 314.985 79.3789 313.137 81.2273C311.288 83.0758 309.044 84 306.403 84H268.378ZM324.634 84V26.9621H333.427L357.113 55.1642L380.8 26.9621H389.593V84H383.177V34.2503L357.113 65.225L331.05 34.2503V84H324.634ZM398.286 84V26.9621H450.334V33.3789H404.703V52.2331H441.382V58.729H404.703V77.5832H450.334V84H398.286ZM458.78 84V26.9621H467.574L509.401 76.7118V26.9621H515.818V84H507.025L465.197 34.2503V84H458.78ZM547.192 84V33.3789H521.841V26.9621H578.879V33.3789H553.608V84H547.192ZM584.962 84V26.9621H637.01V33.3789H591.379V52.2331H628.058V58.729H591.379V77.5832H637.01V84H584.962ZM645.615 84V26.9621H693.146C695.787 26.9621 698.032 27.8863 699.88 29.7348C701.728 31.5832 702.653 33.8278 702.653 36.4684V74.4937C702.653 77.1343 701.728 79.3789 699.88 81.2273C698.032 83.0758 695.787 84 693.146 84H645.615ZM655.121 77.5832H693.146C693.991 77.5832 694.704 77.2928 695.285 76.7118C695.919 76.0781 696.236 75.3387 696.236 74.4937V36.4684C696.236 35.6234 695.919 34.9104 695.285 34.3295C694.704 33.6957 693.991 33.3789 693.146 33.3789H655.121C654.276 33.3789 653.537 33.6957 652.903 34.3295C652.322 34.9104 652.032 35.6234 652.032 36.4684V74.4937C652.032 75.3387 652.322 76.0781 652.903 76.7118C653.537 77.2928 654.276 77.5832 655.121 77.5832Z" fill="black"/>
<defs>
<clipPath id="clip0">
<rect width="110" height="112" fill="white"/>
</clipPath>
</defs>
</svg>
